# xmcd
#
# Track frame offsets: 
#        150
#        22880
#        37053
#        60038
#        82418
#        98801
#        120014
#        139822
#        160502
#        196078
#        215380
#        236097
#        258028
#        272436
#        298719
#        309374
#
# Disc length: 4312 seconds
#
# Revision: 2
# Processed by: cddbd v1.4PL0 Copyright (c) Steve Scherf et al.
# Submitted via: ExactAudioCopy v0.95a3
#
DISCID=ca10d610
DTITLE=Various Artist - Pushmiarte Session vol.1 - mixed By DJ Yo and Anri Moli
DTITLE=ere
DYEAR=2000
DGENRE=House
TTITLE0=Perry Hill - Goose Bump
TTITLE1=Thomas Bandalter - On Da Rocs
TTITLE2=Eddie Amador - House Music (Ian Polley's Free Spirit Mix)
TTITLE3=Perry Hill - How That Thump Made Me Jump
TTITLE4=Topazz - The New Millenium (Freezy Jump Mix)
TTITLE5=Joey Negro feat. Taka Boom - Must Be The Music (Rodox Dub Mix)
TTITLE6=Phunkie Souls - Tha Music
TTITLE7=Da Mob feat. J. Brown - Fun (DJ Sneak Remix)
TTITLE8=ATFC - The Voice (Shirts Off On The Podium Full Vox)
TTITLE9=The Choo-Choo Project - Harin' and Phazin' (Lab Rats Funkin)
TTITLE10=M.F.O. - Funk Station (Static Loop Rendition)
TTITLE11=House Republic - Deep Down (Bizariod Mix)
TTITLE12=Dr. No - Hyp The Funk
TTITLE13=ATFC /The Voice (George and Barry's Fluid Once Mind Trip)
TTITLE14=The Choo-Choo Project - Lab Rats Rockin With Choo Choo
TTITLE15=Richard Grey - Overdose
EXTD=ID3G:   0
EXTT0=
EXTT1=
EXTT2=
EXTT3=
EXTT4=
EXTT5=
EXTT6=
EXTT7=
EXTT8=
EXTT9=
EXTT10=
EXTT11=
EXTT12=
EXTT13=
EXTT14=
EXTT15=
PLAYORDER=
